<svg xmlns="http://www.w3.org/2000/svg" viewBox="0 0 128 128">
  <defs>
    <radialGradient id="bgGrad" cx="50%" cy="30%" r="70%">
      <stop offset="0%" stop-color="#182234"/>
      <stop offset="60%" stop-color="#0b101a"/>
      <stop offset="100%" stop-color="#04070d"/>
    </radialGradient>
    <linearGradient id="rimGrad" x1="0%" y1="0%" x2="100%" y2="100%">
      <stop offset="0%" stop-color="#0078d4" stop-opacity="0.8"/>
      <stop offset="50%" stop-color="#ffffff" stop-opacity="0.4"/>
      <stop offset="100%" stop-color="#04070d" stop-opacity="0.9"/>
    </linearGradient>
    <linearGradient id="goldGrad" x1="0%" y1="0%" x2="100%" y2="100%">
      <stop offset="0%" stop-color="#ffd700"/>
      <stop offset="100%" stop-color="#ea580c"/>
    </linearGradient>
    <filter id="shadow" x="-20%" y="-20%" width="140%" height="140%">
      <feDropShadow dx="0" dy="6" stdDeviation="8" flood-color="#000000" flood-opacity="0.7"/>
    </filter>
  </defs>

  <!-- Squircle Base with Metallic Rim -->
  <rect x="10" y="10" width="108" height="108" rx="26" fill="url(#bgGrad)" stroke="url(#rimGrad)" stroke-width="3" filter="url(#shadow)"/>
  
  <!-- Subtle Inner Top Highlight -->
  <path d="M 24 13 Q 64 16 104 13" stroke="#ffffff" stroke-width="1.5" stroke-linecap="round" opacity="0.3"/>

  <!-- Center Vector Glyph -->
  
            <rect x="26" y="20" width="76" height="88" rx="8" fill="#041420" stroke="#0078d4" stroke-width="3"/>
            <rect x="26" y="20" width="76" height="18" rx="8" fill="#0078d4" opacity="0.8"/>
            <rect x="26" y="34" width="76" height="4" fill="#0078d4" opacity="0.4"/>
            <circle cx="36" cy="29" r="2" fill="#ffffff"/>
            <circle cx="44" cy="29" r="2" fill="#ffd700"/>
            <circle cx="52" cy="29" r="2" fill="#ff3333"/>
            <text x="64" y="52" font-family="monospace" font-size="10" fill="#ffffff" text-anchor="middle" opacity="0.9">PS ZOTHOS</text>
            <line x1="36" y1="62" x2="88" y2="62" stroke="#00ff9d" stroke-width="1.5" opacity="0.7"/>
            <line x1="36" y1="70" x2="80" y2="70" stroke="#ffffff" stroke-width="1.5" opacity="0.5"/>
            <line x1="36" y1="78" x2="84" y2="78" stroke="#00ff9d" stroke-width="1.5" opacity="0.6"/>
            <line x1="36" y1="86" x2="76" y2="86" stroke="#ffffff" stroke-width="1.5" opacity="0.4"/>
            <line x1="36" y1="94" x2="82" y2="94" stroke="#00ff9d" stroke-width="1.5" opacity="0.5"/>
        
</svg>