<svg viewBox="0 0 400 250" xmlns="http://www.w3.org/2000/svg" fill="none">
  <rect width="400" height="250" fill="var(--svg-bg, #f8fafc)" rx="12"/>
  <g stroke="var(--svg-stroke, #0f5b8a)" stroke-width="2.5" stroke-linecap="round" stroke-linejoin="round">
    <path d="M200 60 L200 50" stroke-width="3"/>
    <path d="M200 70 A35 35 0 0 1 200 140 A35 35 0 0 1 200 70" fill="var(--svg-fill, #e0f2fe)"/>
    <path d="M200 85 A20 20 0 0 1 200 125 A20 20 0 0 1 200 85" fill="var(--svg-fill2, #fff)"/>
    <path d="M185 105 L200 90 L215 105" stroke-width="2"/>
    <circle cx="200" cy="105" r="4" fill="var(--svg-stroke, #0f5b8a)" stroke="none"/>
    <path d="M140 160 Q170 130 200 145 Q230 130 260 160" stroke-dasharray="5 4" opacity="0.4"/>
    <path d="M140 175 Q170 145 200 160 Q230 145 260 175" stroke-dasharray="5 4" opacity="0.3"/>
  </g>
  <text x="200" y="210" text-anchor="middle" font-family="Space Grotesk, sans-serif" font-size="14" font-weight="700" fill="var(--svg-text, #0f172a)">Alarm Systems</text>
</svg>
