<svg xmlns="http://www.w3.org/2000/svg" viewBox="0 0 200 200" style="overflow: visible">
  <defs>
    <filter id="emp-glow-nova" x="-20%" y="-20%" width="140%" height="140%">
      <feGaussianBlur stdDeviation="4" result="blur" />
      <feComposite in="SourceGraphic" in2="blur" operator="over" />
    </filter>
    <linearGradient id="emp-body-nova" x1="0%" y1="0%" x2="100%" y2="100%">
      <stop offset="0%" stop-color="#fff5f5" />
      <stop offset="100%" stop-color="#fff5f5" stop-opacity="0.6" />
    </linearGradient>
  </defs>
  <circle cx="100" cy="100" r="80" fill="#ff6b6b" fill-opacity="0.05" stroke="#ff6b6b" stroke-width="1" stroke-dasharray="4 4" />
  <circle cx="100" cy="100" r="60" fill="#ff6b6b" fill-opacity="0.08" />
  <g style="transform-origin: 100px 100px">
    <rect x="64" y="74" width="80" height="60" rx="20" fill="#000000" opacity="0.08" />
    <rect x="60" y="70" width="80" height="60" rx="20" fill="url(#emp-body-nova)" stroke="#2d0a0a" stroke-width="4" />
    <rect x="70" y="80" width="60" height="40" rx="10" fill="#2d0a0a" opacity="0.04" />
    <g style="transform-origin: 100px 95px">
      <circle cx="85" cy="95" r="7" fill="#2d0a0a" />
      <circle cx="115" cy="95" r="7" fill="#2d0a0a" />
    </g>
    <path d="M85 110 Q100 120 115 110" fill="none" stroke="#2d0a0a" stroke-width="3" stroke-linecap="round" />
    <path d="M95 70 L105 70 L102 60 L98 60 Z" fill="#2d0a0a" />
    <line x1="100" y1="60" x2="100" y2="40" stroke="#2d0a0a" stroke-width="4" stroke-linecap="round" />
    <circle cx="100" cy="35" r="8" fill="#ffd700" filter="url(#emp-glow-nova)" />
  </g>
  <circle cx="160" cy="80" r="4" fill="#ff6b6b" filter="url(#emp-glow-nova)" />
  <circle cx="170" cy="110" r="6" fill="#ffd700" filter="url(#emp-glow-nova)" />
  <circle cx="30" cy="90" r="5" fill="#ff6b6b" filter="url(#emp-glow-nova)" />
  <path d="M140 100 L160 80" stroke="#ff6b6b" stroke-width="2" stroke-dasharray="2 2" />
  <path d="M140 100 L170 110" stroke="#ffd700" stroke-width="2" stroke-dasharray="2 2" />
  <path d="M60 100 L30 90" stroke="#ff6b6b" stroke-width="2" stroke-dasharray="2 2" />
</svg>
