# Nexus 3D Studio Asset Pipeline
# Model: NeonGateway
mtllib neon_gateway.mtl
o NeonGateway

v -1.7500 0.0000 0.2500
v -1.2500 0.0000 0.2500
v -1.2500 3.2000 0.2500
v -1.7500 3.2000 0.2500
v -1.7500 0.0000 -0.2500
v -1.2500 0.0000 -0.2500
v -1.2500 3.2000 -0.2500
v -1.7500 3.2000 -0.2500
v 1.2500 0.0000 0.2500
v 1.7500 0.0000 0.2500
v 1.7500 3.2000 0.2500
v 1.2500 3.2000 0.2500
v 1.2500 0.0000 -0.2500
v 1.7500 0.0000 -0.2500
v 1.7500 3.2000 -0.2500
v 1.2500 3.2000 -0.2500
v -1.7500 3.2000 0.2500
v 1.7500 3.2000 0.2500
v 1.7500 3.7000 0.2500
v -1.7500 3.7000 0.2500
v -1.7500 3.2000 -0.2500
v 1.7500 3.2000 -0.2500
v 1.7500 3.7000 -0.2500
v -1.7500 3.7000 -0.2500
v -1.4000 3.0250 0.0250
v 1.4000 3.0250 0.0250
v 1.4000 3.1750 0.0250
v -1.4000 3.1750 0.0250
v -1.4000 3.0250 -0.0250
v 1.4000 3.0250 -0.0250
v 1.4000 3.1750 -0.0250
v -1.4000 3.1750 -0.0250

vn 0.0000 0.0000 1.0000
vn 1.0000 0.0000 0.0000
vn 0.0000 0.0000 -1.0000
vn -1.0000 0.0000 0.0000
vn 0.0000 1.0000 0.0000
vn 0.0000 -1.0000 0.0000
vn 0.0000 0.0000 1.0000
vn 1.0000 0.0000 0.0000
vn 0.0000 0.0000 -1.0000
vn -1.0000 0.0000 0.0000
vn 0.0000 1.0000 0.0000
vn 0.0000 -1.0000 0.0000
vn 0.0000 0.0000 1.0000
vn 1.0000 0.0000 0.0000
vn 0.0000 0.0000 -1.0000
vn -1.0000 0.0000 0.0000
vn 0.0000 1.0000 0.0000
vn 0.0000 -1.0000 0.0000
vn 0.0000 0.0000 1.0000
vn 1.0000 0.0000 0.0000
vn 0.0000 0.0000 -1.0000
vn -1.0000 0.0000 0.0000
vn 0.0000 1.0000 0.0000
vn 0.0000 -1.0000 0.0000

vt 0.0000 0.0000
vt 1.0000 0.0000
vt 1.0000 1.0000
vt 0.0000 1.0000
vt 0.0000 0.0000
vt 1.0000 0.0000
vt 1.0000 1.0000
vt 0.0000 1.0000
vt 0.0000 0.0000
vt 1.0000 0.0000
vt 1.0000 1.0000
vt 0.0000 1.0000
vt 0.0000 0.0000
vt 1.0000 0.0000
vt 1.0000 1.0000
vt 0.0000 1.0000

usemtl PillarMat
f 1/1/1 2/2/1 3/3/1
f 1/1/1 3/3/1 4/4/1
f 2/1/2 6/2/2 7/3/2
f 2/1/2 7/3/2 3/4/2
f 6/1/3 5/2/3 8/3/3
f 6/1/3 8/3/3 7/4/3
f 5/1/4 1/2/4 4/3/4
f 5/1/4 4/3/4 8/4/4
f 4/1/5 3/2/5 7/3/5
f 4/1/5 7/3/5 8/4/5
f 5/1/6 6/2/6 2/3/6
f 5/1/6 2/3/6 1/4/6
f 9/5/7 10/6/7 11/7/7
f 9/5/7 11/7/7 12/8/7
f 10/5/8 14/6/8 15/7/8
f 10/5/8 15/7/8 11/8/8
f 14/5/9 13/6/9 16/7/9
f 14/5/9 16/7/9 15/8/9
f 13/5/10 9/6/10 12/7/10
f 13/5/10 12/7/10 16/8/10
f 12/5/11 11/6/11 15/7/11
f 12/5/11 15/7/11 16/8/11
f 13/5/12 14/6/12 10/7/12
f 13/5/12 10/7/12 9/8/12
f 17/9/13 18/10/13 19/11/13
f 17/9/13 19/11/13 20/12/13
f 18/9/14 22/10/14 23/11/14
f 18/9/14 23/11/14 19/12/14
f 22/9/15 21/10/15 24/11/15
f 22/9/15 24/11/15 23/12/15
f 21/9/16 17/10/16 20/11/16
f 21/9/16 20/11/16 24/12/16
f 20/9/17 19/10/17 23/11/17
f 20/9/17 23/11/17 24/12/17
f 21/9/18 22/10/18 18/11/18
f 21/9/18 18/11/18 17/12/18
usemtl NeonSign
f 25/13/19 26/14/19 27/15/19
f 25/13/19 27/15/19 28/16/19
f 26/13/20 30/14/20 31/15/20
f 26/13/20 31/15/20 27/16/20
f 30/13/21 29/14/21 32/15/21
f 30/13/21 32/15/21 31/16/21
f 29/13/22 25/14/22 28/15/22
f 29/13/22 28/15/22 32/16/22
f 28/13/23 27/14/23 31/15/23
f 28/13/23 31/15/23 32/16/23
f 29/13/24 30/14/24 26/15/24
f 29/13/24 26/15/24 25/16/24
