# Nexus 3D Studio Asset Pipeline
# Model: HeavyMechCarrier
mtllib heavy_mech_carrier.mtl
o HeavyMechCarrier

v -1.1000 0.2000 2.0000
v 1.1000 0.2000 2.0000
v 1.1000 1.0000 2.0000
v -1.1000 1.0000 2.0000
v -1.1000 0.2000 -2.0000
v 1.1000 0.2000 -2.0000
v 1.1000 1.0000 -2.0000
v -1.1000 1.0000 -2.0000
v -0.8000 1.0000 1.8000
v 0.8000 1.0000 1.8000
v 0.8000 1.7000 1.8000
v -0.8000 1.7000 1.8000
v -0.8000 1.0000 0.6000
v 0.8000 1.0000 0.6000
v 0.8000 1.7000 0.6000
v -0.8000 1.7000 0.6000
v -0.9000 1.0000 0.3000
v 0.9000 1.0000 0.3000
v 0.9000 1.2000 0.3000
v -0.9000 1.2000 0.3000
v -0.9000 1.0000 -1.7000
v 0.9000 1.0000 -1.7000
v 0.9000 1.2000 -1.7000
v -0.9000 1.2000 -1.7000

vn 0.0000 0.0000 1.0000
vn 1.0000 0.0000 0.0000
vn 0.0000 0.0000 -1.0000
vn -1.0000 0.0000 0.0000
vn 0.0000 1.0000 0.0000
vn 0.0000 -1.0000 0.0000
vn 0.0000 0.0000 1.0000
vn 1.0000 0.0000 0.0000
vn 0.0000 0.0000 -1.0000
vn -1.0000 0.0000 0.0000
vn 0.0000 1.0000 0.0000
vn 0.0000 -1.0000 0.0000
vn 0.0000 0.0000 1.0000
vn 1.0000 0.0000 0.0000
vn 0.0000 0.0000 -1.0000
vn -1.0000 0.0000 0.0000
vn 0.0000 1.0000 0.0000
vn 0.0000 -1.0000 0.0000

vt 0.0000 0.0000
vt 1.0000 0.0000
vt 1.0000 1.0000
vt 0.0000 1.0000
vt 0.0000 0.0000
vt 1.0000 0.0000
vt 1.0000 1.0000
vt 0.0000 1.0000
vt 0.0000 0.0000
vt 1.0000 0.0000
vt 1.0000 1.0000
vt 0.0000 1.0000

usemtl ArmoredHull
f 1/1/1 2/2/1 3/3/1
f 1/1/1 3/3/1 4/4/1
f 2/1/2 6/2/2 7/3/2
f 2/1/2 7/3/2 3/4/2
f 6/1/3 5/2/3 8/3/3
f 6/1/3 8/3/3 7/4/3
f 5/1/4 1/2/4 4/3/4
f 5/1/4 4/3/4 8/4/4
f 4/1/5 3/2/5 7/3/5
f 4/1/5 7/3/5 8/4/5
f 5/1/6 6/2/6 2/3/6
f 5/1/6 2/3/6 1/4/6
f 9/5/7 10/6/7 11/7/7
f 9/5/7 11/7/7 12/8/7
f 10/5/8 14/6/8 15/7/8
f 10/5/8 15/7/8 11/8/8
f 14/5/9 13/6/9 16/7/9
f 14/5/9 16/7/9 15/8/9
f 13/5/10 9/6/10 12/7/10
f 13/5/10 12/7/10 16/8/10
f 12/5/11 11/6/11 15/7/11
f 12/5/11 15/7/11 16/8/11
f 13/5/12 14/6/12 10/7/12
f 13/5/12 10/7/12 9/8/12
usemtl DockPlatform
f 17/9/13 18/10/13 19/11/13
f 17/9/13 19/11/13 20/12/13
f 18/9/14 22/10/14 23/11/14
f 18/9/14 23/11/14 19/12/14
f 22/9/15 21/10/15 24/11/15
f 22/9/15 24/11/15 23/12/15
f 21/9/16 17/10/16 20/11/16
f 21/9/16 20/11/16 24/12/16
f 20/9/17 19/10/17 23/11/17
f 20/9/17 23/11/17 24/12/17
f 21/9/18 22/10/18 18/11/18
f 21/9/18 18/11/18 17/12/18
